# xmcd CD database file
#
# Track frame offsets:
#	180
#	37454
#	51754
#	105701
#	120247
#	152093
#	170779
#	197085
#
# Disc length: 2904 seconds
#
# Revision: 0
# Processed by: cddbd v1.5.2PL0 Copyright (c) Steve Scherf et al.
# Submitted via: CDex 1.51
#
DISCID=6d0b5608
DTITLE=Rogelio Mejía - Dorian
DYEAR=1900
DGENRE=New Age
TTITLE0=Mar Mágico (Primera Parte)
TTITLE1=Sonoridad Intensa
TTITLE2=Sin Retorno
TTITLE3=Medusa
TTITLE4=El Cuento del Viento
TTITLE5=Imagen para un sueño
TTITLE6=Danza y Espejismo
TTITLE7=Mar Mágico (2a Parte)
EXTD=
EXTT0=
EXTT1=
EXTT2=
EXTT3=
EXTT4=
EXTT5=
EXTT6=
EXTT7=
PLAYORDER=
